<?xml version="1.0" encoding="UTF-8"?>
<svg width="25px" height="20px" viewBox="0 0 25 20" version="1.1" xmlns="http://www.w3.org/2000/svg" xmlns:xlink="http://www.w3.org/1999/xlink">
    <!-- Generator: Sketch 46.2 (44496) - http://www.bohemiancoding.com/sketch -->
    <title></title>
    <desc>Created with Sketch.</desc>
    <defs></defs>
    <g id="Page-1" stroke="none" stroke-width="1" fill="none" fill-rule="evenodd">
        <path d="M22.7857143,17.5714286 L22.7857143,7.28571429 C22.4999986,7.60714446 22.1919659,7.90178437 21.8616071,8.16964286 C19.468738,10.0089378 17.5669713,11.5178512 16.15625,12.6964286 C15.7008906,13.0803591 15.3303586,13.3794632 15.0446429,13.59375 C14.7589271,13.8080368 14.3727703,14.0245525 13.8861607,14.2433036 C13.3995511,14.4620547 12.9419664,14.5714286 12.5133929,14.5714286 L12.4866071,14.5714286 C12.0580336,14.5714286 11.6004489,14.4620547 11.1138393,14.2433036 C10.6272297,14.0245525 10.2410729,13.8080368 9.95535714,13.59375 C9.66964143,13.3794632 9.29910942,13.0803591 8.84375,12.6964286 C7.43302866,11.5178512 5.53126196,10.0089378 3.13839286,8.16964286 C2.80803406,7.90178437 2.50000143,7.60714446 2.21428571,7.28571429 L2.21428571,17.5714286 C2.21428571,17.6875006 2.256696,17.787946 2.34151786,17.8727679 C2.42633971,17.9575897 2.52678513,18 2.64285714,18 L22.3571429,18 C22.4732149,18 22.5736603,17.9575897 22.6584821,17.8727679 C22.743304,17.787946 22.7857143,17.6875006 22.7857143,17.5714286 Z M22.7857143,3.49553571 L22.7857143,3.16741071 C22.7857143,3.12723194 22.7834822,3.06919681 22.7790179,2.99330357 C22.7745535,2.91741033 22.7611608,2.86160732 22.7388393,2.82589286 C22.7165177,2.79017839 22.6919644,2.75000022 22.6651786,2.70535714 C22.6383927,2.66071406 22.5982146,2.62723225 22.5446429,2.60491071 C22.4910712,2.58258917 22.4285718,2.57142857 22.3571429,2.57142857 L2.64285714,2.57142857 C2.52678513,2.57142857 2.42633971,2.61383886 2.34151786,2.69866071 C2.256696,2.78348257 2.21428571,2.88392799 2.21428571,3 C2.21428571,4.5000075 2.87052915,5.76785196 4.18303571,6.80357143 C5.90625862,8.16072107 7.69641929,9.57588549 9.55357143,11.0491071 C9.60714312,11.0937502 9.76339156,11.2254453 10.0223214,11.4441964 C10.2812513,11.6629475 10.4866064,11.8303566 10.6383929,11.9464286 C10.7901793,12.0625006 10.9888381,12.2031242 11.234375,12.3683036 C11.4799119,12.533483 11.7053561,12.6562496 11.9107143,12.7366071 C12.1160725,12.8169647 12.3080348,12.8571429 12.4866071,12.8571429 L12.5133929,12.8571429 C12.6919652,12.8571429 12.8839275,12.8169647 13.0892857,12.7366071 C13.2946439,12.6562496 13.5200881,12.533483 13.765625,12.3683036 C14.0111619,12.2031242 14.2098207,12.0625006 14.3616071,11.9464286 C14.5133936,11.8303566 14.7187487,11.6629475 14.9776786,11.4441964 C15.2366084,11.2254453 15.3928569,11.0937502 15.4464286,11.0491071 C17.3035807,9.57588549 19.0937414,8.16072107 20.8169643,6.80357143 C21.2991096,6.41964094 21.7477658,5.90402109 22.1629464,5.25669643 C22.5781271,4.60937176 22.7857143,4.02232406 22.7857143,3.49553571 Z M24.5,3 L24.5,17.5714286 C24.5,18.1607172 24.2901807,18.6651765 23.8705357,19.0848214 C23.4508908,19.5044664 22.9464315,19.7142857 22.3571429,19.7142857 L2.64285714,19.7142857 C2.05356848,19.7142857 1.54910924,19.5044664 1.12946429,19.0848214 C0.70981933,18.6651765 0.5,18.1607172 0.5,17.5714286 L0.5,3 C0.5,2.41071134 0.70981933,1.9062521 1.12946429,1.48660714 C1.54910924,1.06696219 2.05356848,0.857142857 2.64285714,0.857142857 L22.3571429,0.857142857 C22.9464315,0.857142857 23.4508908,1.06696219 23.8705357,1.48660714 C24.2901807,1.9062521 24.5,2.41071134 24.5,3 Z" id="" fill="#748084"></path>
    </g>
</svg>