<?xml version="1.0" encoding="UTF-8"?>
<svg width="26px" height="25px" viewBox="0 0 26 25" version="1.1" xmlns="http://www.w3.org/2000/svg" xmlns:xlink="http://www.w3.org/1999/xlink">
    <!-- Generator: Sketch 46.2 (44496) - http://www.bohemiancoding.com/sketch -->
    <title></title>
    <desc>Created with Sketch.</desc>
    <defs></defs>
    <g id="Page-1" stroke="none" stroke-width="1" fill="none" fill-rule="evenodd">
        <path d="M13.0148273,0.142857143 C15.2464472,0.142857143 17.304525,0.692745648 19.1891226,1.79253916 C21.0737202,2.89233266 22.5658934,4.38450584 23.6656869,6.26910345 C24.7654804,8.15370106 25.3153689,10.2117789 25.3153689,12.4433988 C25.3153689,15.1234781 24.533246,17.5339117 22.9689766,19.6747718 C21.4047071,21.815632 19.3840004,23.2971278 16.9067956,24.1193035 C16.6185002,24.1726915 16.4049512,24.1353205 16.2661424,24.0071892 C16.1273335,23.8790579 16.0579301,23.7188962 16.0579301,23.5266993 C16.0579301,23.4946664 16.0605994,23.0862541 16.0659382,22.30145 C16.071277,21.5166459 16.0739464,20.7985876 16.0739464,20.1472536 C16.0739464,19.1115257 15.7963328,18.353427 15.2410972,17.8729347 C15.8497208,17.8088691 16.39694,17.712772 16.8827711,17.5846408 C17.3686022,17.4565095 17.8704422,17.2482993 18.3883061,16.9600039 C18.90617,16.6717085 19.3386066,16.3166834 19.6856289,15.8949179 C20.0326511,15.4731524 20.3156034,14.9125865 20.5344944,14.2132032 C20.7533853,13.51382 20.8628291,12.7103421 20.8628291,11.8027455 C20.8628291,10.5321103 20.44107,9.43233331 19.597539,8.50338152 C19.9926105,7.53171929 19.9499007,6.44261973 19.4694084,5.23605015 C19.1704354,5.13995169 18.7379988,5.19867765 18.1720857,5.41222979 C17.6061725,5.62578192 17.1150099,5.86068575 16.6985833,6.11694831 L16.0899627,6.50134024 C15.0969453,6.22372246 14.0719104,6.08491565 13.0148273,6.08491565 C11.9577442,6.08491565 10.9327094,6.22372246 9.93969192,6.50134024 C9.76885021,6.38388656 9.54195447,6.23974103 9.25899789,6.06889932 C8.9760413,5.89805761 8.5302579,5.69251677 7.92163431,5.45227061 C7.31301072,5.21202446 6.85921924,5.13995169 6.56024624,5.23605015 C6.07975394,6.44261973 6.03704415,7.53171929 6.4321156,8.50338152 C5.58858466,9.43233331 5.16682552,10.5321103 5.16682552,11.8027455 C5.16682552,12.7103421 5.27626934,13.5111506 5.49516028,14.2051951 C5.71405123,14.8992395 5.9943342,15.4598055 6.33601762,15.8869097 C6.67770104,16.314014 7.10746827,16.6717085 7.6253322,16.9600039 C8.14319614,17.2482993 8.64503613,17.4565095 9.13086724,17.5846408 C9.61669836,17.712772 10.1639175,17.8088691 10.7725411,17.8729347 C10.3561144,18.2573285 10.094517,18.807217 9.98774091,19.5226167 C9.76351117,19.6293928 9.52326862,19.7094736 9.26700605,19.7628617 C9.01074349,19.8162497 8.70643626,19.8429433 8.35407523,19.8429433 C8.0017142,19.8429433 7.65202782,19.7281608 7.3050056,19.4985922 C6.95798338,19.2690237 6.66168423,18.9353535 6.41609927,18.4975716 C6.21322474,18.1558882 5.95429666,17.8782745 5.63930726,17.6647224 C5.32431785,17.4511703 5.06005105,17.3230409 4.84649891,17.2803305 L4.52617231,17.2322815 C4.30194256,17.2322815 4.14711959,17.2563057 4.06169873,17.304355 C3.97627788,17.3524042 3.94958426,17.4137995 3.98161708,17.4885428 C4.0136499,17.563286 4.06169841,17.6380281 4.12576405,17.7127714 C4.18982969,17.7875146 4.2592331,17.8515793 4.33397634,17.9049674 L4.44609066,17.985049 C4.68099801,18.0918251 4.91323247,18.2946966 5.14280102,18.5936696 C5.37236957,18.8926425 5.54053935,19.1649174 5.64731542,19.4105024 L5.80747872,19.778878 C5.94628761,20.1846271 6.18119144,20.5129585 6.51219725,20.7638823 C6.84320307,21.0148061 7.20089753,21.1749678 7.58529138,21.2443722 C7.96968523,21.3137767 8.3407265,21.3511477 8.69842633,21.3564865 C9.05612616,21.3618253 9.3524253,21.3431398 9.58733266,21.3004294 L9.95570825,21.236364 C9.95570825,21.6421131 9.95837761,22.1145901 9.96371642,22.6538093 C9.96905522,23.1930284 9.97172458,23.4839888 9.97172458,23.5266993 C9.97172458,23.7188962 9.90232118,23.8790579 9.76351229,24.0071892 C9.6247034,24.1353205 9.41115446,24.1726915 9.12285908,24.1193035 C6.64565429,23.2971278 4.6249475,21.815632 3.06067809,19.6747718 C1.49640869,17.5339117 0.714285714,15.1234781 0.714285714,12.4433988 C0.714285714,10.2117789 1.26417422,8.15370106 2.36396773,6.26910345 C3.46376123,4.38450584 4.95593441,2.89233266 6.84053202,1.79253916 C8.72512964,0.692745648 10.7832075,0.142857143 13.0148273,0.142857143 Z M5.37503781,17.8088694 C5.33232738,17.8942902 5.26292398,17.9049677 5.16682552,17.840902 C5.06004945,17.787514 5.02267838,17.7234493 5.0547112,17.6487061 C5.08674402,17.595318 5.15614743,17.5846406 5.2629235,17.6166734 C5.36969957,17.6700614 5.40707063,17.7341261 5.37503781,17.8088694 Z M5.87154404,18.3534246 C5.8074784,18.4281679 5.72205883,18.4121517 5.61528276,18.3053756 C5.5191843,18.1879219 5.50850685,18.1025024 5.5832501,18.0491143 C5.64731574,17.9850487 5.73273532,18.0010649 5.83951138,18.0971633 C5.93560985,18.214617 5.94628729,18.3000366 5.87154404,18.3534246 Z M6.35203395,19.0741595 C6.2666131,19.1382251 6.1758548,19.100854 6.07975634,18.9620452 C5.98365788,18.8232363 5.98365788,18.7271392 6.07975634,18.6737512 C6.1758548,18.599008 6.2666131,18.6310403 6.35203395,18.7698492 C6.44813241,18.8979805 6.44813241,18.9994162 6.35203395,19.0741595 Z M7.02471982,19.7468453 C6.93929897,19.8429438 6.8325245,19.8269276 6.70439322,19.6987963 C6.56558433,19.5813427 6.54422943,19.4799069 6.6403279,19.3944861 C6.72574875,19.2983876 6.83252322,19.3144038 6.9606545,19.4425351 C7.08878578,19.5599887 7.11014068,19.6614245 7.02471982,19.7468453 Z M7.93765064,20.1472536 C7.89494022,20.2753849 7.79350447,20.3074172 7.63334037,20.2433516 C7.45182105,20.2006411 7.38241765,20.1205603 7.42512808,20.0031066 C7.4678385,19.8856529 7.56927425,19.8482819 7.72943835,19.8909923 C7.90028006,19.9443803 7.96968346,20.0297999 7.93765064,20.1472536 Z M8.94667945,20.2273352 C8.94667945,20.3447889 8.86125987,20.4035149 8.69041816,20.4035149 C8.50889885,20.4248701 8.41814055,20.3661441 8.41814055,20.2273352 C8.41814055,20.1098816 8.50356012,20.0511556 8.67440183,20.0511556 C8.85592115,20.0298004 8.94667945,20.0885263 8.94667945,20.2273352 Z M9.8756266,20.0671719 C9.89698181,20.173948 9.82223969,20.2486901 9.65139798,20.2914006 C9.48055627,20.334111 9.38445925,20.2914012 9.36310403,20.1632699 C9.34174882,20.0351386 9.41649095,19.9550578 9.58733266,19.923025 C9.75817437,19.9016698 9.85427139,19.9497183 9.8756266,20.0671719 Z" id="" fill="#FFFFFF"></path>
    </g>
</svg>