<?xml version="1.0" encoding="UTF-8"?>
<svg width="25px" height="25px" viewBox="0 0 25 25" version="1.1" xmlns="http://www.w3.org/2000/svg" xmlns:xlink="http://www.w3.org/1999/xlink">
    <!-- Generator: Sketch 46.2 (44496) - http://www.bohemiancoding.com/sketch -->
    <title></title>
    <desc>Created with Sketch.</desc>
    <defs></defs>
    <g id="Page-1" stroke="none" stroke-width="1" fill="none" fill-rule="evenodd">
        <path d="M24.0714286,19.0974026 C24.0714286,19.4042223 24.014611,19.8047865 23.900974,20.2991071 C23.7873371,20.7934278 23.6680201,21.1826284 23.5430195,21.4667208 C23.3043819,22.0349054 22.611207,22.6371721 21.463474,23.273539 C20.3952869,23.8530873 19.3384793,24.1428571 18.2930195,24.1428571 C17.9861998,24.1428571 17.6879073,24.122971 17.3981331,24.0831981 C17.1083589,24.0434251 16.7816577,23.9724031 16.4180195,23.8701299 C16.0543813,23.7678566 15.7844976,23.6854711 15.6083604,23.6229708 C15.4322231,23.5604705 15.1168854,23.4439944 14.6623377,23.273539 C14.2077899,23.1030836 13.9293836,23.0008119 13.8271104,22.9667208 C12.7134685,22.5689915 11.7191602,22.0974053 10.8441558,21.5519481 C9.38960312,20.6542163 7.88677724,19.4297967 6.33563312,17.8786526 C4.784489,16.3275085 3.56006942,14.8246826 2.66233766,13.3701299 C2.11688039,12.4951255 1.6452942,11.5008173 1.24756494,10.3871753 C1.21347386,10.2849021 1.11120215,10.0064958 0.940746753,9.55194805 C0.770291356,9.09740032 0.653815248,8.78206257 0.591314935,8.60592532 C0.528814623,8.42978808 0.446429083,8.15990442 0.344155844,7.79626623 C0.241882606,7.43262805 0.170860588,7.10592677 0.131087662,6.8161526 C0.0913147362,6.52637842 0.0714285714,6.22808595 0.0714285714,5.92126623 C0.0714285714,4.87580646 0.361198401,3.81899885 0.940746753,2.75081169 C1.57711357,1.60307868 2.17938028,0.909903791 2.74756494,0.671266234 C3.03165726,0.546265609 3.42085792,0.42694862 3.91517857,0.313311688 C4.40949922,0.199674756 4.8100634,0.142857143 5.11688312,0.142857143 C5.27597482,0.142857143 5.39529181,0.159902427 5.47483766,0.193993506 C5.67938414,0.262175666 5.98051749,0.693989529 6.37824675,1.48944805 C6.50324738,1.70535822 6.67370022,2.01217334 6.88961039,2.4099026 C7.10552056,2.80763186 7.30438221,3.16842371 7.4862013,3.49228896 C7.66802039,3.81615422 7.84415499,4.12012845 8.01461039,4.40422078 C8.04870147,4.44967555 8.14813229,4.59171959 8.31290584,4.83035714 C8.4776794,5.0689947 8.59983726,5.27069723 8.67938312,5.43547078 C8.75892897,5.60024433 8.7987013,5.76217453 8.7987013,5.92126623 C8.7987013,6.1485401 8.6367711,6.43262817 8.31290584,6.77353896 C7.98904059,7.11444976 7.63677138,7.42694663 7.25608766,7.71103896 C6.87540394,7.99513129 6.52313474,8.29626464 6.19926948,8.61444805 C5.87540422,8.93263146 5.71347403,9.19399248 5.71347403,9.39853896 C5.71347403,9.5008122 5.74188283,9.62865183 5.7987013,9.78206169 C5.85551976,9.93547155 5.90381474,10.0519477 5.94358766,10.1314935 C5.98336059,10.2110394 6.06290525,10.3474016 6.18222403,10.5405844 C6.3015428,10.7337672 6.36688306,10.8417207 6.37824675,10.8644481 C7.24188744,12.421274 8.23051391,13.7564879 9.34415584,14.8701299 C10.4577978,15.9837718 11.7930117,16.9723983 13.3498377,17.836039 C13.372565,17.8474027 13.4805185,17.9127429 13.6737013,18.0320617 C13.8668841,18.1513805 14.0032464,18.2309251 14.0827922,18.2706981 C14.1623381,18.310471 14.2788142,18.3587659 14.432224,18.4155844 C14.5856339,18.4724029 14.7134735,18.5008117 14.8157468,18.5008117 C15.0202932,18.5008117 15.2816543,18.3388815 15.5998377,18.0150162 C15.9180211,17.691151 16.2191544,17.3388818 16.5032468,16.9581981 C16.7873391,16.5775143 17.099836,16.2252451 17.4407468,15.9013799 C17.7816575,15.5775146 18.0657456,15.4155844 18.2930195,15.4155844 C18.4521112,15.4155844 18.6140414,15.4553567 18.7788149,15.5349026 C18.9435885,15.6144484 19.145291,15.7366063 19.3839286,15.9013799 C19.6225661,16.0661534 19.7646102,16.1655842 19.8100649,16.1996753 C20.0941573,16.3701307 20.3981315,16.5462653 20.7219968,16.7280844 C21.045862,16.9099035 21.4066539,17.1087652 21.8043831,17.3246753 C22.2021124,17.5405855 22.5089275,17.7110383 22.7248377,17.836039 C23.5202962,18.2337682 23.95211,18.5349016 24.0202922,18.7394481 C24.0543833,18.8189939 24.0714286,18.9383109 24.0714286,19.0974026 Z" id="" fill="#748084"></path>
    </g>
</svg>